<?xml version="1.0" encoding="UTF-8" standalone="no"?>
<svg
   xmlns:dc="http://purl.org/dc/elements/1.1/"
   xmlns:cc="http://creativecommons.org/ns#"
   xmlns:rdf="http://www.w3.org/1999/02/22-rdf-syntax-ns#"
   xmlns:svg="http://www.w3.org/2000/svg"
   xmlns="http://www.w3.org/2000/svg"
   width="16.012655"
   version="1.1"
   id="svg7384"
   height="15.999979">
  <metadata
     id="metadata90">
    <rdf:RDF>
      <cc:Work
         rdf:about="">
        <dc:format>image/svg+xml</dc:format>
        <dc:type
           rdf:resource="http://purl.org/dc/dcmitype/StillImage" />
        <dc:title>Gnome Symbolic Icon Theme</dc:title>
      </cc:Work>
    </rdf:RDF>
  </metadata>
  <title
     id="title9167">Gnome Symbolic Icon Theme</title>
  <defs
     id="defs7386" />
  <g
     transform="matrix(0.7272,0,0,1,-30.535272,-949.00003)"
     style="display:inline;fill-rule:nonzero"
     id="layer9" />
  <g
     transform="matrix(0.7272,0,0,1,-30.535272,-949.00003)"
     style="display:inline;fill-rule:nonzero"
     id="layer10" />
  <g
     style="fill-rule:nonzero"
     transform="matrix(0.7272,0,0,1,-30.535272,-949.00003)"
     id="layer11" />
  <g
     transform="matrix(0.7272,0,0,1,-30.535272,-949.00003)"
     style="display:inline;fill-rule:nonzero"
     id="layer13" />
  <g
     style="fill-rule:nonzero"
     transform="matrix(0.7272,0,0,1,-30.535272,-949.00003)"
     id="layer14" />
  <g
     transform="matrix(0.7272,0,0,1,-30.535272,-949.00003)"
     style="display:inline;fill-rule:nonzero"
     id="layer15" />
  <g
     transform="matrix(0.7272,0,0,1,-30.535272,-949.00003)"
     style="display:inline;fill-rule:nonzero"
     id="g71291" />
  <g
     transform="matrix(0.7272,0,0,1,-30.535272,-949.00003)"
     style="display:inline;fill-rule:nonzero"
     id="g4953" />
  <g
     transform="matrix(0.7272,0,0,1,-30.535272,-949.00003)"
     style="display:inline;fill-rule:nonzero"
     id="layer12">
    <g
       style="fill-rule:nonzero"
       transform="matrix(1,0,0,0.99999871,-112.37982,189.09791)"
       id="g5273">
      <title
         id="title5275">go-home</title>
      <g
         transform="matrix(0.02603569,0,0,0.02603569,345.96663,902.07624)"
         style="fill:#ffffff;fill-opacity:1;fill-rule:nonzero"
         id="g5277">
        <g
           style="fill:#ffffff;fill-opacity:1;fill-rule:nonzero"
           id="g5279" />
        <g
           style="fill:#ffffff;fill-opacity:1;fill-rule:nonzero"
           id="g5281" />
      </g>
      <g
         style="fill-rule:nonzero"
         transform="matrix(0,1,1,0,-360.61998,639.9031)"
         id="g5283" />
    </g>
    <path
       style="color:#000000;font-style:normal;font-variant:normal;font-weight:normal;font-stretch:normal;font-size:medium;line-height:normal;font-family:Sans;-inkscape-font-specification:Sans;text-indent:0;text-align:start;text-decoration:none;text-decoration-line:none;letter-spacing:normal;word-spacing:normal;text-transform:none;writing-mode:lr-tb;direction:ltr;baseline-shift:baseline;text-anchor:start;display:inline;overflow:visible;visibility:visible;fill:#ffffff;fill-opacity:1;stroke:none;stroke-width:2;marker:none;enable-background:accumulate;fill-rule:nonzero"
       id="path5287"
       d="M 47.78125,954 A 1.0001,1.0001 0 0 0 47,955 v 7 a 1.0001,1.0001 0 0 0 1,1 h 10 a 1.0001,1.0001 0 0 0 1,-1 v -7 a 1.0001,1.0001 0 1 0 -2,0 v 6 h -8 v -6 a 1.0001,1.0001 0 0 0 -1.21875,-1 z" />
    <path
       style="color:#000000;font-style:normal;font-variant:normal;font-weight:normal;font-stretch:normal;font-size:medium;line-height:normal;font-family:Sans;-inkscape-font-specification:Sans;text-indent:0;text-align:start;text-decoration:none;text-decoration-line:none;letter-spacing:normal;word-spacing:normal;text-transform:none;writing-mode:lr-tb;direction:ltr;baseline-shift:baseline;text-anchor:start;display:inline;overflow:visible;visibility:visible;fill:#ffffff;fill-opacity:1;stroke:none;stroke-width:2;marker:none;enable-background:accumulate;fill-rule:nonzero"
       id="path5289"
       d="m 52.90625,950 a 1.0001,1.0001 0 0 0 -0.5,0.1875 l -7,5 a 1.0063276,1.0063276 0 1 0 1.1875,1.625 L 53,952.25 l 6.40625,4.5625 a 1.0063276,1.0063276 0 1 0 1.1875,-1.625 l -7,-5 A 1.0001,1.0001 0 0 0 52.90625,950 Z" />
    <rect
       y="957"
       x="51.000244"
       width="3"
       style="color:#ffffff;display:inline;overflow:visible;visibility:visible;fill:#ffffff;fill-opacity:1;fill-rule:nonzero;stroke:none;stroke-width:2;marker:none;enable-background:accumulate"
       id="rect5291"
       height="6" />
    <rect
       y="956"
       x="-61.000366"
       width="1"
       transform="scale(-1,1)"
       style="display:inline;fill:#ffffff;fill-opacity:1;stroke:none;fill-rule:nonzero"
       ry="1"
       rx="0"
       id="rect5293"
       height="1" />
    <rect
       y="956"
       x="-46.000366"
       width="1"
       transform="scale(-1,1)"
       style="display:inline;fill:#ffffff;fill-opacity:1;stroke:none;fill-rule:nonzero"
       ry="1"
       rx="0"
       id="rect5295"
       height="1" />
  </g>
</svg>
