<?xml version="1.0" encoding="UTF-8" standalone="no"?>
<svg
   xmlns:dc="http://purl.org/dc/elements/1.1/"
   xmlns:cc="http://creativecommons.org/ns#"
   xmlns:rdf="http://www.w3.org/1999/02/22-rdf-syntax-ns#"
   xmlns:svg="http://www.w3.org/2000/svg"
   xmlns="http://www.w3.org/2000/svg"
   xmlns:sodipodi="http://sodipodi.sourceforge.net/DTD/sodipodi-0.dtd"
   xmlns:inkscape="http://www.inkscape.org/namespaces/inkscape"
   inkscape:version="0.91+devel+osxmenu r12922"
   height="16"
   width="16"
   version="1.1"
   sodipodi:docname="ublock-origin.svg"
   id="svg8146"
   viewBox="0 0 16 16">
  <defs
     id="defs8170" />
  <metadata
     id="metadata8148">
    <rdf:RDF>
      <cc:Work
         rdf:about="">
        <dc:format>image/svg+xml</dc:format>
        <dc:type
           rdf:resource="http://purl.org/dc/dcmitype/StillImage" />
        <dc:title>Gnome Symbolic Icon Theme</dc:title>
      </cc:Work>
    </rdf:RDF>
  </metadata>
  <sodipodi:namedview
     inkscape:zoom="22.627417"
     borderopacity="1"
     inkscape:current-layer="g8156"
     inkscape:cx="2.99625"
     inkscape:window-y="23"
     inkscape:snap-grids="true"
     inkscape:snap-bbox-midpoints="false"
     inkscape:object-paths="true"
     inkscape:window-maximized="0"
     inkscape:snap-bbox="true"
     showgrid="false"
     inkscape:snap-nodes="false"
     inkscape:guide-bbox="true"
     inkscape:snap-global="true"
     showguides="true"
     bordercolor="#666666"
     inkscape:window-x="0"
     guidetolerance="10"
     objecttolerance="10"
     inkscape:object-nodes="true"
     inkscape:window-width="1280"
     inkscape:pageopacity="1"
     inkscape:cy="5.3987905"
     inkscape:pageshadow="2"
     pagecolor="#ffffff"
     gridtolerance="10"
     inkscape:bbox-paths="false"
     inkscape:snap-to-guides="true"
     inkscape:window-height="751"
     showborder="true"
     id="namedview8150"
     inkscape:document-units="px"
     inkscape:snap-page="true"
     inkscape:bbox-nodes="true">
    <inkscape:grid
       visible="true"
       enabled="true"
       spacingy="1px"
       spacingx="1px"
       snapvisiblegridlinesonly="true"
       type="xygrid"
       empspacing="2"
       id="grid8152" />
  </sodipodi:namedview>
  <title
     id="title8154">Gnome Symbolic Icon Theme</title>
  <g
     inkscape:label="status"
     transform="translate(-81,-397)"
     inkscape:groupmode="layer"
     fill="ButtonText"
     id="g8156">
    <rect
       y="397.00003"
       x="81"
       height="16"
       width="16"
       id="rect9222"
       style="opacity:1;fill:#ffffff;fill-opacity:0;fill-rule:evenodd;stroke:none;stroke-width:1;stroke-linecap:butt;stroke-linejoin:round;stroke-miterlimit:4;stroke-dasharray:none;stroke-dashoffset:0;stroke-opacity:1" />
    <path
       style="fill-opacity:1.0"
       d="M 8 1 C 6 3 5 3 2 3 C 2 10.568182 2.0855083 11.893421 7.1679688 14.552734 C 7.1849758 14.335917 7.2819504 14.114379 7.4179688 13.966797 L 9.5292969 11.705078 L 7.7851562 9.9296875 C 7.6521409 9.7911073 7.5466743 9.5333022 7.5195312 9.2949219 C 7.4436765 9.3964689 7.3601405 9.4952331 7.2558594 9.5839844 C 6.9463794 9.8473944 6.5037613 10.0113 5.9882812 10 C 5.4761412 9.9887 5.0447344 9.8147013 4.7402344 9.5507812 C 4.4357444 9.2868614 4.26076 8.9545975 4.15625 8.6484375 C 3.94725 8.0361075 3.9980469 7.4628906 3.9980469 7.4628906 L 4 5 C 4.33333 5 5.07295 5.0132 5 5 L 4.9980469 7.5 C 5.0000469 8.00001 4.988 8.99802 6 9 C 7.01163 9.002 7.0001331 7.9999786 7.0019531 7.4804688 L 7 5 L 8 5 L 8.0019531 5.5136719 C 8.4214431 5.1957919 8.93643 5 9.5 5 C 10.87479 5 12 6.12521 12 7.5 C 12 8.3451635 11.556444 9.0702459 10.908203 9.5214844 L 11.439453 10.060547 L 12.958984 8.5351562 C 13.219258 8.2737787 13.539479 8.1012386 13.878906 8.0019531 C 13.989721 6.7026027 14 5.108919 14 3 C 11 3 10 3 8 1 z M 9.5039062 6 C 8.6729063 5.99998 8.0125131 6.6555187 8.0019531 7.4804688 C 8.0020631 7.4814687 8.0016431 7.5151312 8.0019531 7.5195312 C 8.005585 7.8021616 8.092682 8.0590385 8.2304688 8.28125 L 8.5488281 7.9960938 C 8.8460901 7.7478238 9.3130939 7.9152469 9.5605469 8.1542969 L 10.201172 8.8046875 C 10.67251 8.5541268 11 8.0759006 11 7.5 C 11 6.66565 10.334916 6.00002 9.5039062 6 z "
       transform="translate(81,397)"
       id="path6909" />
    <path
       style="color:#bebebe;font-style:normal;font-variant:normal;font-weight:normal;font-stretch:normal;font-size:xx-small;line-height:normal;font-family:'Bitstream Vera Sans';-inkscape-font-specification:'Bitstream Vera Sans';text-indent:0;text-align:start;text-decoration:none;text-decoration-line:none;letter-spacing:normal;word-spacing:normal;text-transform:none;direction:ltr;block-progression:tb;writing-mode:lr-tb;text-anchor:start;display:inline;overflow:visible;visibility:visible;fill:#ef2929;fill-opacity:1;stroke:none;stroke-width:2;marker:none;enable-background:accumulate"
       d="m 89.663,406.08765 0,0.73551 c 0,0.18955 0.09153,0.36878 0.22631,0.5092 l 1.669037,1.69732 -1.669037,1.69733 c -0.134785,0.14041 -0.22631,0.31965 -0.22631,0.50919 l 0,0.73551 0.735508,0 c 0.228331,0 0.391626,-0.0571 0.537486,-0.19802 l 1.867058,-1.89535 1.895347,1.92364 C 94.844259,411.94288 95.035843,412 95.264174,412 l 0.735508,0 0,-0.73551 c 0,-0.18955 -0.09152,-0.39707 -0.22631,-0.53748 l -1.697326,-1.66904 1.697326,-1.69733 c 0.134785,-0.14041 0.22631,-0.34793 0.22631,-0.53748 l 0,-0.73551 -0.735508,0 c -0.228331,0 -0.419915,0.0854 -0.565775,0.22631 l -1.867058,1.89535 -1.895347,-1.92364 c -0.14586,-0.1409 -0.309155,-0.19802 -0.537486,-0.19802 l -0.735508,0 z"
       id="path7591"
       inkscape:connector-curvature="0" />
    <path
       inkscape:connector-curvature="0"
       id="path4176"
       d="m 89.663,406.08765 0,0.73551 c 0,0.18955 0.09153,0.36878 0.22631,0.5092 l 1.669037,1.69732 -1.669037,1.69733 c -0.134785,0.14041 -0.22631,0.31965 -0.22631,0.50919 l 0,0.73551 0.735508,0 c 0.228331,0 0.391626,-0.0571 0.537486,-0.19802 l 1.867058,-1.89535 1.895347,1.92364 C 94.844259,411.94288 95.035843,412 95.264174,412 l 0.735508,0 0,-0.73551 c 0,-0.18955 -0.09152,-0.39707 -0.22631,-0.53748 l -1.697326,-1.66904 1.697326,-1.69733 c 0.134785,-0.14041 0.22631,-0.34793 0.22631,-0.53748 l 0,-0.73551 -0.735508,0 c -0.228331,0 -0.419915,0.0854 -0.565775,0.22631 l -1.867058,1.89535 -1.895347,-1.92364 c -0.14586,-0.1409 -0.309155,-0.19802 -0.537486,-0.19802 l -0.735508,0 z"
       style="color:#bebebe;font-style:normal;font-variant:normal;font-weight:normal;font-stretch:normal;font-size:xx-small;line-height:normal;font-family:'Bitstream Vera Sans';-inkscape-font-specification:'Bitstream Vera Sans';text-indent:0;text-align:start;text-decoration:none;text-decoration-line:none;letter-spacing:normal;word-spacing:normal;text-transform:none;direction:ltr;block-progression:tb;writing-mode:lr-tb;text-anchor:start;display:inline;overflow:visible;visibility:visible;fill:#ef2929;fill-opacity:1;stroke:none;stroke-width:2;marker:none;enable-background:accumulate" />
  </g>
</svg>
