<?xml version="1.0" encoding="UTF-8" standalone="no"?>
<svg
   xmlns:dc="http://purl.org/dc/elements/1.1/"
   xmlns:cc="http://creativecommons.org/ns#"
   xmlns:rdf="http://www.w3.org/1999/02/22-rdf-syntax-ns#"
   xmlns:svg="http://www.w3.org/2000/svg"
   xmlns="http://www.w3.org/2000/svg"
   xmlns:sodipodi="http://sodipodi.sourceforge.net/DTD/sodipodi-0.dtd"
   xmlns:inkscape="http://www.inkscape.org/namespaces/inkscape"
   viewBox="0 0 16 16"
   id="svg8146"
   version="1.1"
   width="16"
   height="16"
   inkscape:version="0.91 r13725"
   sodipodi:docname="ublock-origin.svg">
  <sodipodi:namedview
     pagecolor="#ffffff"
     bordercolor="#666666"
     borderopacity="1"
     objecttolerance="10"
     gridtolerance="10"
     guidetolerance="10"
     inkscape:pageopacity="0"
     inkscape:pageshadow="2"
     inkscape:window-width="751"
     inkscape:window-height="480"
     id="namedview9"
     showgrid="false"
     inkscape:zoom="14.75"
     inkscape:cx="0.54237288"
     inkscape:cy="8"
     inkscape:window-x="0"
     inkscape:window-y="0"
     inkscape:window-maximized="0"
     inkscape:current-layer="svg8146" />
  <defs
     id="defs8170" />
  <metadata
     id="metadata8148">
    <rdf:RDF>
      <cc:Work
         rdf:about="">
        <dc:format>image/svg+xml</dc:format>
        <dc:type
           rdf:resource="http://purl.org/dc/dcmitype/StillImage" />
        <dc:title>Gnome Symbolic Icon Theme</dc:title>
      </cc:Work>
    </rdf:RDF>
  </metadata>
  <title
     id="title8154">Gnome Symbolic Icon Theme</title>
  <g
     id="g8156"
     fill="ButtonText"
     transform="translate(-81,-397)">
    <rect
       style="opacity:1;fill:#ffffff;fill-opacity:0;fill-rule:evenodd;stroke:none;stroke-width:1;stroke-linecap:butt;stroke-linejoin:round;stroke-miterlimit:4;stroke-dasharray:none;stroke-dashoffset:0;stroke-opacity:1"
       id="rect9222"
       width="16"
       height="16"
       x="81"
       y="397.00003" />
    <path
       style="fill-opacity:1;fill-rule:nonzero;stroke:none;stroke-width:1.00819552;stroke-linecap:round;stroke-linejoin:round;stroke-miterlimit:4;stroke-dasharray:none;stroke-opacity:1"
       d="m 88.99999,398.00004 c -2,2 -3,2 -6,2 0,8 0,9 6,12 6,-3 6,-4 6,-12 -3,0 -4,0 -6,-2 z M 85,402.00005 c 0.33333,0 1.07295,0.0132 1,0 l -0.002,2.49999 c 0.002,0.50001 -0.01,1.49803 1.002,1.50001 1.01163,0.002 1,-1 1.00182,-1.51951 l -0.002,-2.48046 1,0 0.002,0.51366 c 0.41949,-0.31788 0.9346,-0.5137 1.49817,-0.5137 1.37479,0 2.5,1.12521 2.5,2.5 0,1.37479 -1.12521,2.5 -2.5,2.5 -0.74587,0 -1.41003,-0.33876 -1.86914,-0.86133 -0.0965,0.15857 -0.21767,0.31141 -0.375,0.44531 -0.30948,0.26341 -0.7521,0.42732 -1.26758,0.41602 -0.51214,-0.0113 -0.94355,-0.1853 -1.24805,-0.44922 -0.30449,-0.26392 -0.47947,-0.59618 -0.58398,-0.90234 -0.209,-0.61233 -0.1582,-1.18555 -0.1582,-1.18555 z m 4.00194,2.48046 c 1.1e-4,0.001 -3.1e-4,0.0347 0,0.0391 0.0106,0.82489 0.67043,1.48047 1.49805,1.48047 0.83435,0 1.5,-0.66565 1.5,-1.5 0,-0.83435 -0.66565,-1.5 -1.49666,-1.50002 -0.831,-2e-5 -1.49083,0.6555 -1.50139,1.48045 z"
       id="path6909" />
  </g>
</svg>
